# xmcd CD database file
#
# Track frame offsets:
#	150
#	38352
#	100757
#	183540
#	210354
#	258764
#
# Disc length: 4086 seconds
#
# Revision: 3
# Processed by: cddbd v1.5.2PL0 Copyright (c) Steve Scherf et al.
# Submitted via: CDex 1.70beta2
#
DISCID=3f0ff406
DTITLE=Soulive - Live At Blue Note Tokyo Disc 1
DYEAR=2009
DGENRE=Jazz+Funk
TTITLE0=Outrage
TTITLE1=Steppin
TTITLE2=One In Seven
TTITLE3=Bubble
TTITLE4=Lenny
TTITLE5=Dig
EXTD=YEAR: 2009
EXTT0=
EXTT1=
EXTT2=
EXTT3=
EXTT4=
EXTT5=
PLAYORDER=
